<svg xmlns="http://www.w3.org/2000/svg" version="1.0" preserveAspectRatio="xMidYMid meet" viewBox="582 192.1 321 466.9">

<g transform="translate(0.000000,937.000000) scale(0.100000,-0.100000)" fill="#000000" stroke="none">
<path d="M7180 7406 c-159 -59 -186 -71 -258 -118 -72 -47 -118 -104 -215 -268 -82 -139 -176 -252 -257 -309 -33 -23 -113 -69 -178 -101 -64 -33 -139 -77 -167 -97 -102 -78 -205 -245 -246 -399 -31 -117 -38 -351 -38 -1286 l-1 -816 68 -63 c73 -67 193 -158 341 -259 149 -102 188 -142 260 -274 72 -130 112 -174 306 -329 123 -99 193 -143 281 -177 49 -19 86 -24 214 -29 l156 -6 74 -48 c40 -26 82 -47 92 -47 10 0 75 51 146 114 l128 114 0 79 c0 100 27 162 123 282 69 86 263 281 353 354 40 33 52 38 78 32 28 -6 40 1 137 86 105 91 106 92 137 80 17 -7 36 -13 42 -14 7 -1 71 51 143 116 l131 119 0 501 c0 276 -5 594 -11 707 -6 113 -14 291 -17 395 l-7 190 -61 125 c-34 69 -84 159 -112 200 -76 114 -205 232 -355 325 -174 108 -230 168 -332 356 -95 175 -123 217 -194 293 -54 56 -187 144 -274 180 -50 20 -179 36 -287 35 -74 -1 -100 -6 -200 -43z m363 -1 c133 -23 301 -117 394 -219 43 -47 217 -335 208 -345 -2 -2 -21 10 -42 26 -103 82 -272 158 -442 201 -94 24 -125 27 -276 27 -151 0 -182 -3 -276 -27 -58 -15 -139 -40 -180 -56 -76 -31 -211 -103 -241 -130 -10 -8 -18 -13 -18 -10 0 21 188 311 223 342 45 41 220 131 324 165 122 41 207 48 326 26z m139 -373 c123 -32 245 -84 344 -147 72 -46 194 -144 194 -156 0 -5 -26 4 -57 20 -97 48 -252 102 -373 129 -102 23 -137 26 -310 26 -176 0 -207 -3 -318 -27 -348 -78 -639 -260 -835 -522 -65 -87 -67 -75 -7 52 113 241 310 435 561 552 170 80 330 112 534 107 127 -3 168 -9 267 -34z m8 -167 c230 -38 441 -118 599 -229 96 -68 206 -285 253 -501 7 -35 13 -126 13 -220 l0 -160 -39 -74 c-121 -233 -247 -382 -437 -517 -346 -246 -809 -283 -1194 -95 -267 130 -457 325 -603 618 -67 135 -76 171 -69 301 7 131 26 181 112 307 190 278 486 472 835 549 63 13 131 27 150 29 90 10 293 6 380 -8z m-1267 -227 c-4 -7 -29 -44 -54 -83 -81 -122 -129 -239 -166 -396 -26 -117 -23 -367 6 -488 106 -434 429 -762 862 -875 314 -83 675 -33 944 131 282 172 469 427 545 744 30 123 33 373 7 488 -33 142 -82 264 -153 379 l-26 43 39 -19 c58 -30 192 -128 246 -180 80 -78 215 -296 258 -418 13 -37 23 -96 26 -159 l6 -100 -36 -68 c-60 -112 -168 -269 -227 -328 -52 -53 -62 -59 -175 -95 -133 -43 -190 -74 -295 -160 -93 -76 -144 -146 -226 -304 -75 -147 -130 -207 -249 -278 -101 -59 -245 -112 -324 -119 -107 -9 -274 14 -357 48 -98 41 -227 122 -263 166 -44 53 -95 156 -121 243 -28 95 -42 122 -93 177 -57 62 -138 123 -244 184 -204 117 -339 244 -407 384 -82 167 -105 382 -57 535 43 140 106 253 188 340 67 72 87 86 211 149 75 39 138 70 140 71 2 0 -1 -6 -5 -12z m-8 -1214 c69 -90 204 -218 299 -286 412 -291 953 -291 1371 0 102 71 277 247 336 337 25 39 56 86 68 105 l23 35 -7 -30 c-22 -99 -137 -304 -228 -405 -69 -76 -168 -158 -257 -214 -338 -209 -743 -240 -1110 -84 -282 119 -509 350 -621 630 -20 50 -58 182 -59 202 0 6 29 -41 65 -103 35 -63 90 -147 120 -187z m2555 144 l0 -62 -21 20 c-19 20 -20 22 -3 62 9 23 18 42 20 42 2 0 4 -28 4 -62z m-2985 -155 c65 -86 270 -243 398 -304 l47 -23 -1 -710 c-1 -391 -4 -724 -8 -739 l-6 -28 -57 44 c-32 25 -79 57 -105 73 -69 39 -257 181 -330 248 l-63 58 0 796 0 797 44 -82 c25 -45 61 -104 81 -130z m2989 5 c-5 -12 -181 -164 -209 -181 -16 -8 -45 1 -45 15 0 5 41 66 92 135 l92 125 38 -40 c21 -23 35 -47 32 -54z m16 -52 c0 -7 -230 -206 -238 -206 -14 0 -52 31 -52 42 0 6 8 4 18 -5 10 -10 23 -17 28 -17 6 0 61 43 123 95 107 90 121 101 121 91z m-10 -60 c0 -7 -221 -196 -229 -196 -5 0 -19 9 -32 20 -26 21 -11 27 22 10 16 -9 34 2 122 79 91 81 117 100 117 87z m10 -40 c0 -7 -231 -206 -239 -206 -5 0 -19 9 -32 20 -26 21 -11 27 22 10 17 -9 34 3 127 84 95 85 122 105 122 92z m0 -50 c0 -8 -230 -206 -239 -206 -5 0 -19 9 -32 20 -26 21 -11 27 23 9 17 -9 26 -5 62 29 49 47 174 152 181 152 3 0 5 -2 5 -4z m-337 -73 c4 -38 7 -314 7 -614 l0 -547 -80 -72 -80 -72 0 666 0 665 58 16 c31 9 62 18 67 20 6 2 13 4 16 4 3 1 9 -29 12 -66z m327 13 c0 -7 -221 -196 -229 -196 -5 0 -19 9 -32 20 -26 21 -11 27 22 10 16 -9 34 2 122 79 91 81 117 100 117 87z m-570 -35 c0 -5 -56 -58 -125 -116 l-125 -107 -66 -127 c-112 -212 -128 -236 -196 -280 -33 -23 -65 -41 -72 -41 -6 1 22 31 61 68 65 60 82 84 159 227 95 178 131 222 264 321 85 64 100 72 100 55z m580 -5 c0 -7 -231 -206 -239 -206 -5 0 -19 9 -32 20 -26 21 -11 27 22 10 17 -9 34 3 127 84 95 85 122 105 122 92z m0 -50 c0 -8 -230 -206 -239 -206 -5 0 -19 9 -32 20 -26 21 -11 27 23 9 17 -9 26 -5 62 29 49 47 174 152 181 152 3 0 5 -2 5 -4z m-580 -17 c0 -6 -19 -27 -42 -47 -159 -139 -182 -169 -283 -363 -60 -114 -131 -200 -175 -212 -27 -7 -37 13 -14 26 45 24 104 101 168 222 107 201 148 252 267 340 63 46 79 53 79 34z m47 -699 c1 -270 -3 -448 -8 -425 -4 22 -7 285 -7 585 1 323 4 496 8 425 4 -66 7 -329 7 -585z m-1923 648 c41 -48 46 -64 14 -47 -33 17 -78 61 -78 76 0 25 29 12 64 -29z m2446 8 c0 -7 -221 -196 -229 -196 -5 0 -19 9 -32 20 -26 21 -11 27 22 10 16 -9 34 2 122 79 91 81 117 100 117 87z m-570 -20 c0 -8 -31 -40 -70 -73 -81 -67 -127 -129 -200 -268 -78 -149 -108 -191 -153 -225 -72 -53 -74 -33 -5 38 49 50 78 91 113 162 100 200 147 263 269 352 45 32 46 33 46 14z m-1887 -52 c36 -36 54 -70 44 -81 -9 -8 -97 85 -97 102 0 23 14 18 53 -21z m2467 32 c0 -7 -231 -206 -239 -206 -5 0 -19 9 -32 20 -26 21 -11 27 22 10 17 -9 34 3 127 84 95 85 122 105 122 92z m-586 -88 c3 -29 6 -278 6 -554 l0 -501 -125 -108 c-113 -99 -267 -256 -322 -330 l-22 -30 -1 494 0 493 74 79 c56 60 84 101 119 173 26 53 63 122 83 153 34 54 157 183 174 183 4 0 10 -24 14 -52z m586 38 c0 -8 -230 -206 -239 -206 -5 0 -19 9 -32 20 -26 21 -11 27 23 9 17 -9 26 -5 62 29 49 47 174 152 181 152 3 0 5 -2 5 -4z m-2437 -88 c10 -14 17 -36 15 -49 -3 -23 -5 -22 -50 22 -35 33 -48 53 -48 74 l0 28 32 -25 c18 -14 41 -36 51 -50z m103 -35 c51 -168 111 -256 228 -335 118 -81 226 -118 404 -139 l102 -12 0 -688 0 -687 -77 -7 c-100 -8 -196 11 -294 60 -91 45 -151 90 -296 218 l-113 99 0 743 c0 653 3 835 16 835 2 0 15 -39 30 -87z m2324 63 c0 -7 -221 -196 -229 -196 -5 0 -19 9 -32 20 -26 21 -11 27 22 10 16 -9 34 2 122 79 91 81 117 100 117 87z m10 -40 c0 -7 -231 -206 -239 -206 -5 0 -19 9 -32 20 -26 21 -11 27 22 10 17 -9 34 3 127 84 95 85 122 105 122 92z m-2466 -55 c23 -23 36 -46 34 -57 -3 -16 -8 -14 -40 16 -35 34 -59 80 -41 80 5 0 26 -18 47 -39z m2466 5 c0 -7 -231 -206 -239 -206 -5 0 -19 9 -32 20 -26 21 -11 27 22 9 17 -9 31 -1 97 58 118 105 152 132 152 119z m-2456 -87 c26 -31 34 -59 17 -59 -19 0 -81 68 -81 89 0 18 3 20 19 12 10 -6 31 -24 45 -42z m2456 37 c0 -7 -231 -206 -239 -206 -5 0 -19 9 -32 20 -26 21 -11 27 22 9 17 -9 31 -1 97 58 118 105 152 132 152 119z m-20 -70 c-72 -70 -206 -186 -216 -186 -17 0 -62 39 -46 40 7 0 23 -5 34 -11 17 -9 26 -5 62 29 57 54 175 152 183 152 4 0 -4 -11 -17 -24z m-2412 -101 c-2 -14 -11 -10 -45 24 -26 24 -43 50 -43 63 0 20 5 17 46 -23 28 -28 45 -53 42 -64z m2432 71 c0 -7 -231 -206 -239 -206 -5 0 -19 9 -32 20 -26 21 -11 27 22 10 17 -9 34 3 127 84 95 85 122 105 122 92z m0 -50 c0 -7 -231 -206 -239 -206 -5 0 -19 9 -32 20 -26 21 -11 27 22 9 17 -9 31 -1 97 58 118 105 152 132 152 119z m-2464 -39 c26 -24 35 -39 32 -57 -3 -24 -3 -24 -45 14 -40 35 -57 76 -33 76 6 0 26 -15 46 -33z m2444 -31 c-72 -70 -206 -186 -216 -186 -17 0 -62 39 -46 40 7 0 23 -5 34 -11 17 -9 26 -5 62 29 57 54 175 152 183 152 4 0 -4 -11 -17 -24z m-2412 -112 c-5 -29 -88 50 -88 85 0 25 1 24 46 -20 29 -29 45 -53 42 -65z m2432 82 c0 -7 -231 -206 -239 -206 -5 0 -19 9 -32 20 -26 21 -11 27 22 10 17 -9 34 3 127 84 95 85 122 105 122 92z m-1120 -90 c0 -6 -24 -30 -52 -52 -29 -23 -90 -73 -135 -112 l-82 -71 -86 50 c-75 45 -85 53 -85 79 0 35 -1 34 105 65 47 14 120 43 163 64 l77 39 48 -26 c26 -14 47 -30 47 -36z m1120 40 c0 -7 -231 -206 -239 -206 -5 0 -19 9 -32 20 -26 21 -11 27 22 9 17 -9 31 -1 97 58 118 105 152 132 152 119z m-2466 -50 c39 -36 51 -85 17 -67 -26 14 -71 69 -71 87 0 22 16 17 54 -20z m2446 -20 c-72 -70 -206 -186 -216 -186 -17 0 -62 39 -46 40 7 0 23 -5 34 -11 17 -9 26 -5 62 29 57 54 175 152 183 152 4 0 -4 -11 -17 -24z m-1137 -65 c-40 -38 -106 -99 -149 -137 l-76 -68 -75 39 c-71 38 -111 70 -102 80 3 2 43 -18 88 -45 98 -58 68 -69 250 93 135 119 176 144 64 38z m-1283 -20 c19 -28 26 -51 15 -51 -27 0 -95 79 -95 110 0 16 55 -25 80 -59z m2440 55 c0 -7 -231 -206 -239 -206 -5 0 -19 9 -32 20 -26 21 -11 27 22 10 17 -9 34 3 127 84 95 85 122 105 122 92z m-1145 -73 c-27 -25 -94 -86 -147 -135 -53 -49 -99 -84 -102 -79 -4 5 -35 25 -70 45 -34 19 -69 43 -77 52 -18 22 -12 19 84 -34 l78 -44 86 79 c119 108 183 163 191 163 4 -1 -15 -21 -43 -47z m1145 23 c0 -7 -231 -206 -239 -206 -5 0 -19 9 -32 20 -26 21 -11 27 22 9 17 -9 31 -1 97 58 118 105 152 132 152 119z m-2440 -83 c11 -14 20 -34 20 -45 0 -19 -1 -19 -31 -1 -41 24 -69 60 -69 90 l0 24 30 -21 c16 -11 38 -32 50 -47z m1343 52 c-5 -8 -36 -38 -70 -67 -34 -29 -95 -83 -136 -120 -41 -38 -78 -68 -84 -68 -13 0 -157 90 -165 103 -14 23 2 17 86 -34 l86 -51 87 78 c124 113 193 174 199 174 3 0 1 -7 -3 -15z m1077 -39 c-72 -70 -206 -186 -216 -186 -17 0 -62 39 -46 40 7 0 23 -5 34 -11 17 -9 26 -5 62 29 57 54 175 152 183 152 4 0 -4 -11 -17 -24z m-1125 -54 c-34 -32 -100 -93 -148 -136 l-88 -79 -35 17 c-62 29 -150 89 -137 93 7 2 47 -16 89 -41 54 -31 83 -42 93 -36 9 5 74 63 146 129 71 66 132 118 135 115 3 -3 -22 -31 -55 -62z m1090 -30 c-99 -90 -166 -142 -184 -142 -9 0 -26 7 -37 16 -19 15 -19 15 1 11 11 -3 28 -8 37 -12 11 -4 25 3 45 26 38 43 177 158 183 152 3 -3 -17 -25 -45 -51z m-2365 -53 c0 -10 -4 -19 -9 -19 -16 0 -61 42 -76 70 -26 50 -16 53 35 10 28 -23 50 -50 50 -61z m1327 78 c-3 -8 -69 -70 -147 -137 l-141 -122 -62 32 c-81 43 -123 73 -109 78 6 2 46 -17 88 -42 54 -31 83 -42 93 -36 9 5 74 63 146 129 71 66 131 118 133 116 3 -2 2 -11 -1 -18z m-62 -105 c-39 -37 -106 -98 -149 -137 l-78 -69 -75 39 c-70 38 -111 70 -102 79 2 3 42 -17 89 -44 100 -57 76 -66 250 93 126 116 177 147 65 39z m-1265 -51 c0 -21 -25 -11 -62 26 -25 24 -38 46 -38 63 0 23 4 22 50 -27 28 -28 50 -56 50 -62z m1314 48 c-10 -12 -77 -74 -149 -139 l-130 -117 -69 43 c-100 63 -115 84 -23 34 52 -28 85 -40 100 -36 12 3 80 59 152 125 71 66 131 118 134 115 2 -2 -4 -13 -15 -25z m-1 -53 c-23 -31 -269 -246 -280 -246 -13 0 -157 90 -165 103 -14 23 2 17 86 -33 l86 -52 137 126 c134 121 174 152 136 102z m-1353 -24 c29 -25 41 -44 39 -57 -4 -17 -10 -14 -52 24 -43 40 -60 71 -38 71 5 0 28 -17 51 -38z m1334 -43 c-16 -17 -80 -76 -142 -132 l-114 -100 -35 17 c-61 29 -148 89 -136 93 7 3 45 -15 85 -38 40 -23 76 -43 79 -45 8 -4 56 35 190 154 97 86 123 104 73 51z m-1326 -42 c22 -23 33 -42 30 -57 -3 -21 -6 -20 -50 20 -33 28 -48 50 -48 66 0 21 3 23 18 15 9 -5 32 -25 50 -44z m1356 19 c-3 -7 -56 -56 -117 -109 -62 -52 -123 -107 -136 -121 -14 -14 -32 -26 -40 -25 -23 0 -163 91 -169 108 -3 10 11 5 42 -12 25 -15 66 -38 90 -53 l45 -25 141 125 c77 70 143 126 145 126 2 0 2 -6 -1 -14z m-59 -104 c-39 -37 -106 -98 -149 -137 l-78 -70 -85 45 c-47 25 -87 49 -90 53 -14 23 13 15 81 -22 41 -22 82 -41 90 -41 14 0 48 28 205 168 45 39 84 72 89 72 4 0 -25 -31 -63 -68z m-1284 -16 c35 -58 21 -62 -39 -10 -28 24 -42 44 -42 60 l0 25 31 -22 c17 -12 40 -36 50 -53z m1323 3 c-40 -43 -262 -239 -270 -239 -8 0 -174 100 -174 105 0 8 34 -7 107 -47 l73 -40 38 34 c22 18 84 75 140 126 100 91 144 122 86 61z m-1321 -81 c10 -14 17 -36 15 -49 -3 -23 -6 -22 -51 22 -34 33 -47 54 -47 74 l0 28 32 -25 c18 -14 41 -36 51 -50z m1326 36 c-13 -14 -80 -76 -148 -137 l-124 -111 -74 39 c-71 38 -111 70 -102 80 3 2 44 -18 92 -46 l88 -51 86 79 c48 43 112 101 142 130 57 52 84 64 40 17z m-44 -92 c-34 -31 -98 -90 -144 -131 l-84 -75 -71 38 c-39 22 -79 46 -89 54 -35 31 -6 23 67 -17 41 -22 81 -41 89 -41 8 0 74 52 147 115 143 124 182 150 85 57z m-1265 -81 c0 -32 -24 -25 -64 19 -26 29 -36 49 -36 73 l0 32 50 -52 c28 -28 50 -61 50 -72z m1309 70 c-8 -11 -72 -70 -143 -132 l-129 -113 -71 39 c-39 21 -79 45 -89 53 -35 31 -6 23 67 -17 41 -22 81 -41 89 -41 7 0 74 52 147 115 74 63 136 115 139 115 2 0 -3 -9 -10 -19z m10 -37 c-8 -9 -74 -71 -148 -138 l-134 -120 -84 44 c-47 25 -87 49 -90 53 -14 22 12 15 79 -22 41 -23 82 -41 91 -41 9 0 79 56 154 124 76 68 140 122 142 120 2 -2 -2 -11 -10 -20z m-1374 -49 c41 -32 57 -70 53 -124 l-3 -43 -47 96 c-27 53 -45 96 -42 96 3 0 20 -11 39 -25z m1359 -16 c-19 -22 -235 -216 -259 -233 -8 -6 -40 8 -99 43 -125 76 -113 81 22 8 l72 -39 86 78 c91 84 186 164 193 164 2 0 -4 -10 -15 -21z m-34 -82 c-111 -105 -228 -207 -239 -207 -13 0 -159 88 -167 101 -14 23 7 16 89 -32 l87 -51 138 126 c140 128 210 176 92 63z m35 -23 c-16 -15 -83 -74 -149 -132 l-119 -106 -74 39 c-68 37 -118 75 -98 75 5 0 41 -18 81 -40 40 -22 79 -40 87 -40 7 0 74 52 147 115 74 63 139 115 145 115 5 0 -3 -12 -20 -26z m-40 -82 c-34 -31 -98 -90 -144 -131 l-84 -75 -44 24 c-53 28 -142 90 -129 90 5 0 42 -18 82 -40 40 -22 79 -40 87 -40 8 0 74 52 147 115 143 124 182 150 85 57z m15 -35 c-31 -28 -99 -91 -151 -139 l-96 -86 -34 21 c-109 67 -141 89 -136 93 3 3 39 -13 79 -35 41 -23 81 -41 90 -41 8 0 77 54 153 120 144 125 191 158 95 67z m-90 -128 c-79 -76 -149 -139 -153 -139 -12 0 -159 92 -154 96 2 2 33 -12 70 -32 46 -24 73 -33 90 -29 14 4 83 60 153 125 71 66 131 119 134 119 3 0 -60 -63 -140 -140z m65 10 c-22 -22 -80 -77 -128 -121 -80 -74 -90 -80 -112 -70 -36 17 -155 96 -150 100 2 2 42 -17 90 -42 l85 -47 123 110 c67 61 124 111 127 111 2 0 -14 -18 -35 -41z m5 -44 c-7 -8 -61 -60 -119 -115 l-107 -99 -87 56 c-48 31 -85 58 -83 61 2 2 38 -15 78 -37 41 -23 82 -41 91 -41 9 0 65 42 124 94 108 95 126 109 103 81z m-16 -73 c-22 -20 -78 -71 -125 -113 l-84 -76 -88 55 c-49 30 -86 56 -84 59 3 2 39 -14 81 -37 53 -29 83 -40 99 -36 12 4 69 48 127 100 58 51 107 91 110 89 3 -3 -13 -21 -36 -41z m21 -32 c-3 -5 -55 -54 -115 -110 l-109 -100 -78 51 c-88 57 -105 70 -100 76 3 2 43 -20 91 -48 l87 -52 42 40 c52 50 175 153 183 153 3 0 3 -4 -1 -10z"/>
</g>
</svg>